<svg xmlns="http://www.w3.org/2000/svg" width="320" height="359.072" viewBox="0 0 320 359.072">
  <g id="Grupo_781" data-name="Grupo 781" transform="translate(-20 -256.928)">
    <rect id="Retângulo_1481" data-name="Retângulo 1481" width="38" height="38" rx="4" transform="translate(67 343)" fill="#92d4ef" opacity="0.4"/>
    <rect id="Retângulo_1497" data-name="Retângulo 1497" width="38" height="38" rx="4" transform="translate(67 437)" fill="#92d4ef"/>
    <rect id="Retângulo_1510" data-name="Retângulo 1510" width="38" height="38" rx="4" transform="translate(67 530)" fill="#92d4ef"/>
    <rect id="Retângulo_1516" data-name="Retângulo 1516" width="38" height="38" rx="4" transform="translate(67 577)" fill="#92d4ef" opacity="0.4"/>
    <rect id="Retângulo_1482" data-name="Retângulo 1482" width="38" height="37" rx="4" transform="translate(67 391)" fill="#92d4ef"/>
    <rect id="Retângulo_1496" data-name="Retângulo 1496" width="38" height="38" rx="4" transform="translate(67 484)" fill="#92d4ef"/>
    <rect id="Retângulo_1483" data-name="Retângulo 1483" width="38" height="39" rx="4" transform="translate(20 343)" fill="#92d4ef" opacity="0.4"/>
    <rect id="Retângulo_1498" data-name="Retângulo 1498" width="38" height="38" rx="4" transform="translate(20 437)" fill="#92d4ef"/>
    <rect id="Retângulo_1509" data-name="Retângulo 1509" width="38" height="39" rx="4" transform="translate(20 530)" fill="#92d4ef"/>
    <rect id="Retângulo_1517" data-name="Retângulo 1517" width="38" height="39" rx="4" transform="translate(20 577)" fill="#92d4ef"/>
    <rect id="Retângulo_1484" data-name="Retângulo 1484" width="39" height="39" rx="4" transform="translate(113 343)" fill="#92d4ef" opacity="0.4"/>
    <rect id="Retângulo_1499" data-name="Retângulo 1499" width="39" height="38" rx="4" transform="translate(113 437)" fill="#92d4ef"/>
    <rect id="Retângulo_1511" data-name="Retângulo 1511" width="39" height="39" rx="4" transform="translate(113 530)" fill="#92d4ef"/>
    <rect id="Retângulo_1518" data-name="Retângulo 1518" width="39" height="39" rx="4" transform="translate(113 577)" fill="#92d4ef" opacity="0.4"/>
    <rect id="Retângulo_1488" data-name="Retângulo 1488" width="39" height="39" rx="4" transform="translate(160 343)" fill="#92d4ef" opacity="0.4"/>
    <rect id="Retângulo_1501" data-name="Retângulo 1501" width="39" height="38" rx="4" transform="translate(160 437)" fill="#92d4ef"/>
    <rect id="Retângulo_1512" data-name="Retângulo 1512" width="39" height="39" rx="4" transform="translate(160 530)" fill="#92d4ef"/>
    <rect id="Retângulo_1519" data-name="Retângulo 1519" width="39" height="39" rx="4" transform="translate(160 577)" fill="#92d4ef" opacity="0.4"/>
    <rect id="Retângulo_1490" data-name="Retângulo 1490" width="39" height="39" rx="4" transform="translate(207 343)" fill="#92d4ef" opacity="0.4"/>
    <rect id="Retângulo_1503" data-name="Retângulo 1503" width="39" height="38" rx="4" transform="translate(207 437)" fill="#92d4ef"/>
    <rect id="Retângulo_1513" data-name="Retângulo 1513" width="39" height="39" rx="4" transform="translate(207 530)" fill="#92d4ef"/>
    <rect id="Retângulo_1520" data-name="Retângulo 1520" width="39" height="39" rx="4" transform="translate(207 577)" fill="#92d4ef" opacity="0.4"/>
    <rect id="Retângulo_1492" data-name="Retângulo 1492" width="38" height="39" rx="4" transform="translate(255 343)" fill="#92d4ef"/>
    <rect id="Retângulo_1505" data-name="Retângulo 1505" width="38" height="38" rx="4" transform="translate(255 437)" fill="#92d4ef"/>
    <rect id="Retângulo_1514" data-name="Retângulo 1514" width="38" height="39" rx="4" transform="translate(255 530)" fill="#92d4ef"/>
    <rect id="Retângulo_1521" data-name="Retângulo 1521" width="38" height="39" rx="4" transform="translate(255 577)" fill="#92d4ef" opacity="0.4"/>
    <rect id="Retângulo_1494" data-name="Retângulo 1494" width="38" height="39" rx="4" transform="translate(302 343)" fill="#92d4ef"/>
    <rect id="Retângulo_1507" data-name="Retângulo 1507" width="38" height="38" rx="4" transform="translate(302 437)" fill="#92d4ef"/>
    <rect id="Retângulo_1515" data-name="Retângulo 1515" width="38" height="39" rx="4" transform="translate(302 530)" fill="#92d4ef"/>
    <rect id="Retângulo_1522" data-name="Retângulo 1522" width="38" height="39" rx="4" transform="translate(302 577)" fill="#92d4ef" opacity="0.4"/>
    <rect id="Retângulo_1485" data-name="Retângulo 1485" width="38" height="38" rx="4" transform="translate(20 391)" fill="#92d4ef"/>
    <rect id="Retângulo_1495" data-name="Retângulo 1495" width="38" height="39" rx="4" transform="translate(20 484)" fill="#92d4ef"/>
    <rect id="Retângulo_1486" data-name="Retângulo 1486" width="39" height="38" rx="4" transform="translate(113 391)" fill="#92d4ef"/>
    <rect id="Retângulo_1500" data-name="Retângulo 1500" width="39" height="39" rx="4" transform="translate(113 484)" fill="#92d4ef"/>
    <rect id="Retângulo_1487" data-name="Retângulo 1487" width="39" height="38" rx="4" transform="translate(160 391)" fill="#92d4ef"/>
    <rect id="Retângulo_1502" data-name="Retângulo 1502" width="39" height="39" rx="4" transform="translate(160 484)" fill="#92d4ef"/>
    <rect id="Retângulo_1489" data-name="Retângulo 1489" width="39" height="38" rx="4" transform="translate(207 391)" fill="#92d4ef"/>
    <rect id="Retângulo_1504" data-name="Retângulo 1504" width="39" height="39" rx="4" transform="translate(207 484)" fill="#92d4ef"/>
    <rect id="Retângulo_1491" data-name="Retângulo 1491" width="38" height="38" rx="4" transform="translate(255 391)" fill="#92d4ef"/>
    <rect id="Retângulo_1506" data-name="Retângulo 1506" width="38" height="39" rx="4" transform="translate(255 484)" fill="#92d4ef"/>
    <rect id="Retângulo_1493" data-name="Retângulo 1493" width="38" height="38" rx="4" transform="translate(302 391)" fill="#92d4ef"/>
    <rect id="Retângulo_1508" data-name="Retângulo 1508" width="38" height="39" rx="4" transform="translate(302 484)" fill="#92d4ef"/>
    <text id="D" transform="translate(39 325)" fill="#3c6382" font-size="16" font-family="SummitAttack-Regular, Summit Attack"><tspan x="-4.768" y="0">D</tspan></text>
    <text id="S" transform="translate(85 325)" fill="#3c6382" font-size="16" font-family="SummitAttack-Regular, Summit Attack"><tspan x="-4.128" y="0">S</tspan></text>
    <text id="T" transform="translate(133 325)" fill="#3c6382" font-size="16" font-family="SummitAttack-Regular, Summit Attack"><tspan x="-3.56" y="0">T</tspan></text>
    <text id="Q" transform="translate(178 325)" fill="#3c6382" font-size="16" font-family="SummitAttack-Regular, Summit Attack"><tspan x="-5.032" y="0">Q</tspan></text>
    <text id="Q-2" data-name="Q" transform="translate(224 325)" fill="#3c6382" font-size="16" font-family="SummitAttack-Regular, Summit Attack"><tspan x="-5.032" y="0">Q</tspan></text>
    <text id="S-2" data-name="S" transform="translate(271 325)" fill="#3c6382" font-size="16" font-family="SummitAttack-Regular, Summit Attack"><tspan x="-4.128" y="0">S</tspan></text>
    <text id="S-3" data-name="S" transform="translate(317 325)" fill="#3c6382" font-size="16" font-family="SummitAttack-Regular, Summit Attack"><tspan x="-4.128" y="0">S</tspan></text>
    <text id="Maio_2020" data-name="Maio 2020" transform="translate(177.151 272.5)" fill="#3c6382" font-size="20" font-family="SummitAttack-Regular, Summit Attack"><tspan x="-39.96" y="0">Maio 2020</tspan></text>
    <path id="Caminho_36" data-name="Caminho 36" d="M9.544,12.387,0,2.843,2.843,0l6.7,6.7,6.7-6.7,2.843,2.843Z" transform="translate(310.727 276.017) rotate(-90)" fill="#3c6382"/>
    <path id="Caminho_36-2" data-name="Caminho 36" d="M9.544,12.387,0,2.843,2.843,0l6.7,6.7,6.7-6.7,2.843,2.843Z" transform="translate(51.454 256.928) rotate(90)" fill="#3c6382"/>
    <text id="_1" data-name="1" transform="translate(273.41 366.052)" fill="#3c6382" font-size="16" font-family="SummitAttack-Regular, Summit Attack"><tspan x="-2.872" y="0">1</tspan></text>
    <text id="_2" data-name="2" transform="translate(320.687 366.052)" fill="#3c6382" font-size="16" font-family="SummitAttack-Regular, Summit Attack"><tspan x="-3.928" y="0">2</tspan></text>
    <text id="_9" data-name="9" transform="translate(320.687 413.185)" fill="#3c6382" font-size="16" font-family="SummitAttack-Regular, Summit Attack"><tspan x="-4.224" y="0">9</tspan></text>
    <text id="_8" data-name="8" transform="translate(273.553 413.185)" fill="#3c6382" font-size="16" font-family="SummitAttack-Regular, Summit Attack"><tspan x="-4.288" y="0">8</tspan></text>
    <text id="_7" data-name="7" transform="translate(226.42 413.185)" fill="#3c6382" font-size="16" font-family="SummitAttack-Regular, Summit Attack"><tspan x="-3.888" y="0">7</tspan></text>
    <text id="_30" data-name="30" transform="translate(226.278 366.052)" fill="#92d4ef" font-size="16" font-family="SummitAttack-Regular, Summit Attack"><tspan x="-8.912" y="0">30</tspan></text>
    <text id="_6" data-name="6" transform="translate(179.286 413.185)" fill="#3c6382" font-size="16" font-family="SummitAttack-Regular, Summit Attack"><tspan x="-3.96" y="0">6</tspan></text>
    <text id="_29" data-name="29" transform="translate(179.002 366.052)" fill="#92d4ef" font-size="16" font-family="SummitAttack-Regular, Summit Attack"><tspan x="-8.152" y="0">29</tspan></text>
    <text id="_5" data-name="5" transform="translate(132.153 413.185)" fill="#3c6382" font-size="16" font-family="SummitAttack-Regular, Summit Attack"><tspan x="-4.096" y="0">5</tspan></text>
    <text id="_28" data-name="28" transform="translate(131.868 366.052)" fill="#92d4ef" font-size="16" font-family="SummitAttack-Regular, Summit Attack"><tspan x="-8.216" y="0">28</tspan></text>
    <text id="_4" data-name="4" transform="translate(85.019 413.185)" fill="#3c6382" font-size="16" font-family="SummitAttack-Regular, Summit Attack"><tspan x="-4.264" y="0">4</tspan></text>
    <text id="_27" data-name="27" transform="translate(84.735 366.052)" fill="#92d4ef" font-size="16" font-family="SummitAttack-Regular, Summit Attack"><tspan x="-7.632" y="0">27</tspan></text>
    <text id="_3" data-name="3" transform="translate(38.743 413.185)" fill="#3c6382" font-size="16" font-family="SummitAttack-Regular, Summit Attack"><tspan x="-4.256" y="0">3</tspan></text>
    <text id="_26" data-name="26" transform="translate(38.458 366.052)" fill="#92d4ef" font-size="16" font-family="SummitAttack-Regular, Summit Attack"><tspan x="-7.752" y="0">26</tspan></text>
    <text id="_10" data-name="10" transform="translate(38.315 459.462)" fill="#3c6382" font-size="16" font-family="SummitAttack-Regular, Summit Attack"><tspan x="-7.432" y="0">10</tspan></text>
    <text id="_17" data-name="17" transform="translate(38.172 505.595)" fill="#3c6382" font-size="15" font-family="SummitAttack-Regular, Summit Attack"><tspan x="-6.337" y="0">17</tspan></text>
    <text id="_24" data-name="24" transform="translate(38.458 552.872)" fill="#3c6382" font-size="16" font-family="SummitAttack-Regular, Summit Attack"><tspan x="-7.824" y="0">24</tspan></text>
    <text id="_31" data-name="31" transform="translate(38.315 600.005)" fill="#3c6382" font-size="16" font-family="SummitAttack-Regular, Summit Attack"><tspan x="-7.128" y="0">31</tspan></text>
    <text id="_11" data-name="11" transform="translate(84.305 458.462)" fill="#3c6382" font-size="15" font-family="SummitAttack-Regular, Summit Attack"><tspan x="-5.212" y="0">11</tspan></text>
    <text id="_18" data-name="18" transform="translate(84.591 506.595)" fill="#3c6382" font-size="16" font-family="SummitAttack-Regular, Summit Attack"><tspan x="-7.16" y="0">18</tspan></text>
    <text id="_25" data-name="25" transform="translate(84.735 552.872)" fill="#3c6382" font-size="16" font-family="SummitAttack-Regular, Summit Attack"><tspan x="-8.024" y="0">25</tspan></text>
    <text id="_1-2" data-name="1" transform="translate(84.876 600.005)" fill="#92d4ef" font-size="16" font-family="SummitAttack-Regular, Summit Attack"><tspan x="-2.872" y="0">1</tspan></text>
    <text id="_12" data-name="12" transform="translate(132.582 459.462)" fill="#3c6382" font-size="16" font-family="SummitAttack-Regular, Summit Attack"><tspan x="-6.8" y="0">12</tspan></text>
    <text id="_19" data-name="19" transform="translate(131.725 506.595)" fill="#3c6382" font-size="16" font-family="SummitAttack-Regular, Summit Attack"><tspan x="-7.096" y="0">19</tspan></text>
    <text id="_26-2" data-name="26" transform="translate(131.868 552.872)" fill="#3c6382" font-size="16" font-family="SummitAttack-Regular, Summit Attack"><tspan x="-7.752" y="0">26</tspan></text>
    <text id="_2-2" data-name="2" transform="translate(132.153 600.005)" fill="#92d4ef" font-size="16" font-family="SummitAttack-Regular, Summit Attack"><tspan x="-3.928" y="0">2</tspan></text>
    <text id="_13" data-name="13" transform="translate(178.858 459.462)" fill="#3c6382" font-size="16" font-family="SummitAttack-Regular, Summit Attack"><tspan x="-7.128" y="0">13</tspan></text>
    <text id="_20" data-name="20" transform="translate(179.145 506.595)" fill="#3c6382" font-size="16" font-family="SummitAttack-Regular, Summit Attack"><tspan x="-8.584" y="0">20</tspan></text>
    <text id="_27-2" data-name="27" transform="translate(179.002 552.872)" fill="#3c6382" font-size="16" font-family="SummitAttack-Regular, Summit Attack"><tspan x="-7.632" y="0">27</tspan></text>
    <text id="_3-2" data-name="3" transform="translate(179.286 600.005)" fill="#92d4ef" font-size="16" font-family="SummitAttack-Regular, Summit Attack"><tspan x="-4.256" y="0">3</tspan></text>
    <text id="_14" data-name="14" transform="translate(225.992 459.462)" fill="#3c6382" font-size="16" font-family="SummitAttack-Regular, Summit Attack"><tspan x="-6.896" y="0">14</tspan></text>
    <text id="_21" data-name="21" transform="translate(226.849 506.595)" fill="#3c6382" font-size="16" font-family="SummitAttack-Regular, Summit Attack"><tspan x="-6.8" y="0">21</tspan></text>
    <text id="_28-2" data-name="28" transform="translate(226.135 552.872)" fill="#3c6382" font-size="16" font-family="SummitAttack-Regular, Summit Attack"><tspan x="-8.216" y="0">28</tspan></text>
    <text id="_4-2" data-name="4" transform="translate(226.42 600.005)" fill="#92d4ef" font-size="16" font-family="SummitAttack-Regular, Summit Attack"><tspan x="-4.264" y="0">4</tspan></text>
    <text id="_15" data-name="15" transform="translate(273.125 459.462)" fill="#3c6382" font-size="16" font-family="SummitAttack-Regular, Summit Attack"><tspan x="-6.968" y="0">15</tspan></text>
    <text id="_22" data-name="22" transform="translate(273.268 506.595)" fill="#3c6382" font-size="16" font-family="SummitAttack-Regular, Summit Attack"><tspan x="-7.856" y="0">22</tspan></text>
    <text id="_29-2" data-name="29" transform="translate(273.268 552.872)" fill="#3c6382" font-size="16" font-family="SummitAttack-Regular, Summit Attack"><tspan x="-8.152" y="0">29</tspan></text>
    <text id="_5-2" data-name="5" transform="translate(273.553 600.005)" fill="#92d4ef" font-size="16" font-family="SummitAttack-Regular, Summit Attack"><tspan x="-4.096" y="0">5</tspan></text>
    <text id="_16" data-name="16" transform="translate(320.259 459.462)" fill="#3c6382" font-size="16" font-family="SummitAttack-Regular, Summit Attack"><tspan x="-6.832" y="0">16</tspan></text>
    <text id="_23" data-name="23" transform="translate(320.402 506.595)" fill="#3c6382" font-size="16" font-family="SummitAttack-Regular, Summit Attack"><tspan x="-8.184" y="0">23</tspan></text>
    <text id="_30-2" data-name="30" transform="translate(320.545 552.872)" fill="#3c6382" font-size="16" font-family="SummitAttack-Regular, Summit Attack"><tspan x="-8.912" y="0">30</tspan></text>
    <text id="_6-2" data-name="6" transform="translate(320.687 600.005)" fill="#92d4ef" font-size="16" font-family="SummitAttack-Regular, Summit Attack"><tspan x="-3.96" y="0">6</tspan></text>
  </g>
</svg>
