<svg xmlns="http://www.w3.org/2000/svg" width="346.155" height="14" viewBox="0 0 346.155 14">
  <g id="Light_Status_Bar" data-name="Light Status Bar" transform="translate(0 -1.905)">
    <g id="Right_Detail" data-name="Right Detail" transform="translate(276.638 1.905)">
      <g id="Battery" transform="translate(9.999)">
        <g id="Battery_Icon" data-name="Battery Icon" transform="translate(34.282 0.952)">
          <g id="Battery_Outline" data-name="Battery Outline" fill="none" stroke-miterlimit="10" opacity="0.47">
            <path d="M0,2.381A2.381,2.381,0,0,1,2.381,0H20.474a2.381,2.381,0,0,1,2.381,2.381v6.19a2.381,2.381,0,0,1-2.381,2.381H2.381A2.381,2.381,0,0,1,0,8.571Z" stroke="none"/>
            <path d="M 2.380710601806641 1 C 1.619380950927734 1 1.000001907348633 1.619379997253418 1.000001907348633 2.380709648132324 L 1.000001907348633 8.570549964904785 C 1.000001907348633 9.331879615783691 1.619380950927734 9.951259613037109 2.380710601806641 9.951259613037109 L 19.1862621307373 9.951259613037109 L 20.47409057617188 9.951259613037109 C 21.23542213439941 9.951259613037109 21.85480117797852 9.331879615783691 21.85480117797852 8.570549964904785 L 21.85480117797852 2.380709648132324 C 21.85480117797852 1.619379997253418 21.23542213439941 1 20.47409057617188 1 L 2.380710601806641 1 M 2.380710601806641 0 L 20.47409057617188 0 C 21.78892135620117 0 22.85480117797852 1.065879821777344 22.85480117797852 2.380709648132324 L 22.85480117797852 8.570549964904785 C 22.85480117797852 9.885379791259766 21.78892135620117 10.95125961303711 20.47409057617188 10.95125961303711 L 19.1862621307373 10.95125961303711 L 1.9073486328125e-06 10.95125961303711 L 2.380710601806641 10.95125961303711 C 1.065881729125977 10.95125961303711 1.9073486328125e-06 9.885379791259766 1.9073486328125e-06 8.570549964904785 L 1.9073486328125e-06 2.380709648132324 C 1.9073486328125e-06 1.065879821777344 1.065881729125977 0 2.380710601806641 0 Z" stroke="none"/>
          </g>
          <path id="Battery_Connector" data-name="Battery Connector" d="M0,0A2.144,2.144,0,0,1,1.429,2.021,2.144,2.144,0,0,1,0,4.041Z" transform="translate(23.807 3.455)" opacity="0.58"/>
          <rect id="Battery_Fill" data-name="Battery Fill" width="19.046" height="7.142" rx="1" transform="translate(1.905 1.905)"/>
        </g>
        <text id="_100_" data-name="100%" font-size="12" font-family="SFProText-Regular, SF Pro Text"><tspan x="1.279" y="11">100%</tspan></text>
      </g>
      <path id="bluetooth" d="M2.857,11.427V6.9L.714,9.047,0,8.332,2.619,5.714,0,3.095l.714-.714L2.857,4.524V0l3.81,3.333L4.047,5.713,6.666,8.094,2.858,11.425ZM3.81,6.666h0V9.284L5.237,8.055,3.81,6.666Zm0-4.41V4.762L5.237,3.428Z" transform="translate(0 0.476)"/>
    </g>
    <text id="Time" transform="translate(171.889 12)" font-size="11" font-family="SFProText-Regular, SF Pro Text"><tspan x="-21.253" y="0">9:41 AM</tspan></text>
    <g id="Left_Detail" data-name="Left Detail" transform="translate(0 3.333)">
      <path id="Signal" d="M13.605,9.523a.751.751,0,0,1-.751-.75V.75A.751.751,0,0,1,13.605,0h1.356a.75.75,0,0,1,.751.75V8.773a.75.75,0,0,1-.751.75Zm-4.286,0a.75.75,0,0,1-.75-.75V2.655a.75.75,0,0,1,.75-.751h1.357a.75.75,0,0,1,.75.751V8.773a.75.75,0,0,1-.75.75Zm-4.285,0a.75.75,0,0,1-.75-.75V4.559a.75.75,0,0,1,.75-.751H6.392a.75.75,0,0,1,.75.751V8.773a.75.75,0,0,1-.75.75Zm-4.285,0A.75.75,0,0,1,0,8.773V5.988a.75.75,0,0,1,.75-.75H2.107a.75.75,0,0,1,.75.75V8.773a.75.75,0,0,1-.75.75Z"/>
      <path id="Wifi" d="M4.649,7.025a2.74,2.74,0,0,1,3.091,0L6.2,8.571ZM6.191,4.4A4.858,4.858,0,0,0,3.117,5.492l-.84-.84a6.061,6.061,0,0,1,7.832,0l-.84.84A4.857,4.857,0,0,0,6.191,4.4ZM0,2.375a9.268,9.268,0,0,1,12.391,0l-.843.843a8.08,8.08,0,0,0-10.705,0Z" transform="translate(19.992 0.476)" stroke="#000" stroke-linecap="round" stroke-linejoin="round" stroke-miterlimit="10" stroke-width="1"/>
    </g>
  </g>
</svg>
